<?xml version="1.0" standalone="no"?>
<!DOCTYPE svg PUBLIC "-//W3C//DTD SVG 20010904//EN"
 "http://www.w3.org/TR/2001/REC-SVG-20010904/DTD/svg10.dtd">
<svg version="1.0" xmlns="http://www.w3.org/2000/svg"
 width="16.000000pt" height="16.000000pt" viewBox="0 0 16.000000 16.000000"
 preserveAspectRatio="xMidYMid meet">

<g transform="translate(0.000000,16.000000) scale(0.100000,-0.100000)"
fill="#000000" stroke="none">
<path d="M4 147 c-3 -8 -4 -43 -2 -78 l3 -64 75 0 75 0 0 75 0 75 -73 3 c-55
2 -74 -1 -78 -11z m111 -47 c0 -17 -6 -26 -20 -28 -15 -2 -17 -1 -6 6 23 16 5
45 -24 40 -13 -3 -22 -1 -19 4 3 5 20 8 37 6 27 -2 32 -7 32 -28z m-50 -34
c-4 -20 -12 -36 -17 -36 -9 0 -2 54 9 73 10 17 14 -2 8 -37z"/>
</g>
</svg>
